# xmcd
#
# Track frame offsets:
#	150
#	13751
#	24984
#	38787
#	51636
#	69242
#	80962
#	95835
#	109519
#	121845
#	135405
#
# Disc length: 2035 seconds
#
# Revision: 1
# Processed by: cddbd v1.5.2PL0 Copyright (c) Steve Scherf et al.
# Submitted via: audiograbber 1.83.01
#
DISCID=9007f10b
DTITLE=Willie Nelson - Last Man Standing
DYEAR=2018
DGENRE=Country
TTITLE0=Last Man Standing
TTITLE1=Don't Tell Noah
TTITLE2=Bad Breath
TTITLE3=Me and You
TTITLE4=Something You Get Through
TTITLE5=Ready to Roar
TTITLE6=Heaven Is Closed
TTITLE7=I Ain't Got Nothin'
TTITLE8=She Made My Day
TTITLE9=I'll Try To Do Better Next Time
TTITLE10=Very Far to Crawl
EXTD=
EXTT0=
EXTT1=
EXTT2=
EXTT3=
EXTT4=
EXTT5=
EXTT6=
EXTT7=
EXTT8=
EXTT9=
EXTT10=
PLAYORDER=
